<svg xmlns="http://www.w3.org/2000/svg" viewBox="0 0 178.32 89.16"><defs><style>.cls-1,.cls-2{fill:#fff;}.cls-2{fill-rule:evenodd;}</style></defs><title>logo-viviani_1</title><g id="Camada_2" data-name="Camada 2"><g id="Camada_1-2" data-name="Camada 1"><path class="cls-1" d="M39.91,3.64a6,6,0,0,1,2.2.56,8.91,8.91,0,0,1,2.6,1.73,10.28,10.28,0,0,1,2.16,3,9.6,9.6,0,0,1,.9,4.33,5.86,5.86,0,0,1-1,2.94A24.47,24.47,0,0,1,44,19.73q-1.69,1.88-3.83,3.86t-4.41,3.86Q33.51,29.33,31.33,31t-3.91,2.9q-1.73,1.25-2.83,2a7.3,7.3,0,0,1-1.21.72,3.11,3.11,0,0,1-.68-.14,2.52,2.52,0,0,1-1-.65,4.3,4.3,0,0,1-.92-1.46,6.76,6.76,0,0,1-.4-2.54,6.49,6.49,0,0,1,.47-1.8q.47-1.3,1.26-3.1t1.78-4l2-4.38,2-4.38q1-2.16,1.78-4T31,7.1a6.49,6.49,0,0,0,.47-1.8A2.49,2.49,0,0,0,31,4a4.5,4.5,0,0,0-1.17-1.23A6.3,6.3,0,0,0,28,1.86a7.56,7.56,0,0,0-2.32-.34,17.78,17.78,0,0,0-5.62.92,23.76,23.76,0,0,0-5.21,2.45,24.49,24.49,0,0,0-4.43,3.57,25.45,25.45,0,0,0-3.39,4.23,17.42,17.42,0,0,0-2,4.43,9.92,9.92,0,0,0-.36,4.22,5,5,0,0,0,.88,2.25A5.21,5.21,0,0,0,7.07,25a6,6,0,0,0,1.8.7,8.11,8.11,0,0,0,1.66.2,5.59,5.59,0,0,0,1.91-.32,10.84,10.84,0,0,0,1.64-.74A15.32,15.32,0,0,0,15.43,24a9.54,9.54,0,0,1,1-.65.73.73,0,0,1,.63-.11q.22.11.22.72a1.89,1.89,0,0,1-.7,1.48,6.32,6.32,0,0,1-1.66,1,9.57,9.57,0,0,1-1.95.61,8.4,8.4,0,0,1-1.53.2,12.23,12.23,0,0,1-3.6-.58,11.92,11.92,0,0,1-3.5-1.75A11.6,11.6,0,0,1,1.57,22a9.27,9.27,0,0,1-1.5-4,8.37,8.37,0,0,1,.49-4.11A14.63,14.63,0,0,1,2.94,9.82,22.46,22.46,0,0,1,6.89,6,29,29,0,0,1,12.1,2.9,30.94,30.94,0,0,1,18.29.77,30.37,30.37,0,0,1,25.2,0a13.17,13.17,0,0,1,2.94.36A10.9,10.9,0,0,1,31.07,1.5a8,8,0,0,1,2.36,2A6.27,6.27,0,0,1,34.68,6.6a8.07,8.07,0,0,1-.16,2.61,26.12,26.12,0,0,1-.9,3.23Q33,14.16,32.19,16t-1.73,3.75Q29.92,21,29,22.8t-1.78,3.57q-.88,1.82-1.51,3.53a8.75,8.75,0,0,0-.63,2.94q1-.87,2.72-2.23t3.71-3.08q2-1.71,4-3.69a41.48,41.48,0,0,0,3.71-4.07A24.27,24.27,0,0,0,42,15.53,9.25,9.25,0,0,0,43,11.39,9.84,9.84,0,0,0,42.7,8.7a8.63,8.63,0,0,0-.85-2.05,4.48,4.48,0,0,0-1.1-1.3,1.87,1.87,0,0,0-1.1-.45,1.63,1.63,0,0,1-.85-.2q-.34-.2-.38-.43t.29-.43A2.42,2.42,0,0,1,39.91,3.64Z"/><path class="cls-1" d="M49,28.65a.46.46,0,0,1,.23-.18.29.29,0,0,1,.23,0,.22.22,0,0,1,.11.2.63.63,0,0,1-.14.36q-.09.14-.46.64t-.89,1.15q-.52.66-1.15,1.4t-1.26,1.35a9.42,9.42,0,0,1-1.21,1,1.85,1.85,0,0,1-1,.4,1.37,1.37,0,0,1-.85-.24,1.67,1.67,0,0,1-.5-.61,2.52,2.52,0,0,1-.23-.8,3.55,3.55,0,0,1,0-.79,3.07,3.07,0,0,1,.36-1.13q.32-.64.76-1.38l.89-1.54a12.82,12.82,0,0,0,.78-1.61,1,1,0,0,0,.07-.27,1.52,1.52,0,0,1,.05-.26.45.45,0,0,1,.11-.19.32.32,0,0,1,.23-.07.74.74,0,0,1,.38.14,1.38,1.38,0,0,1,.4.4,2.16,2.16,0,0,1,.29.66,2.52,2.52,0,0,1,.05.92,2.66,2.66,0,0,1-.34.93q-.31.57-.71,1.22l-.82,1.31a9,9,0,0,0-.65,1.2,1.94,1.94,0,0,0-.21.87q0,.33.5.33.2,0,.78-.5a17.05,17.05,0,0,0,1.32-1.29q.73-.78,1.51-1.74A20.65,20.65,0,0,0,49,28.65Zm-1.82-3.08a.62.62,0,0,1-.35-.14,1.32,1.32,0,0,1-.35-.41,2.43,2.43,0,0,1-.31-1.53,2.33,2.33,0,0,1,.2-.83,1.92,1.92,0,0,1,.36-.54,1.3,1.3,0,0,1,.41-.29,1,1,0,0,1,.38-.09,1.42,1.42,0,0,1,.44.1,3.05,3.05,0,0,1,.55.26,2,2,0,0,1,.46.37.58.58,0,0,1,.17.44.76.76,0,0,1-.13.39,2.44,2.44,0,0,1-.27.32l-.36.39a4,4,0,0,0-.41.59l-.32.56a2.11,2.11,0,0,1-.18.29.31.31,0,0,1-.13.11Z"/><path class="cls-1" d="M49.75,26.19q0-.16.32-.17a1.47,1.47,0,0,1,.69.18,2.13,2.13,0,0,1,.69.58,1.56,1.56,0,0,1,.32,1,2.53,2.53,0,0,1-.28,1,12.44,12.44,0,0,1-.68,1.25q-.4.65-.83,1.3t-.75,1.16a5.1,5.1,0,0,0-.43.83q-.12.32.12.32a1.76,1.76,0,0,0,.81-.47A14.94,14.94,0,0,0,51,32q.72-.75,1.5-1.7t1.41-1.93A14.09,14.09,0,0,0,55,26.46a3.92,3.92,0,0,0,.41-1.58,2.41,2.41,0,0,0-.27-1.2,2.68,2.68,0,0,0-.59-.75,2.6,2.6,0,0,0-.85-.49.11.11,0,0,1-.07.05,1,1,0,0,1-.31,0,.58.58,0,0,1-.33-.08.21.21,0,0,1-.11-.19.25.25,0,0,1,.15-.19,1,1,0,0,1,.45-.08,3.15,3.15,0,0,1,.94.23,4.77,4.77,0,0,1,1.27.71,4.68,4.68,0,0,1,1.12,1.24,3.31,3.31,0,0,1,.48,1.8,3.07,3.07,0,0,1-.53,1.57,12.65,12.65,0,0,1-1.33,1.77,24.38,24.38,0,0,1-1.76,1.78q-1,.87-1.8,1.58t-1.46,1.18q-.61.48-.74.6l-.4.38a.85.85,0,0,1-.59.2,1.05,1.05,0,0,1-.7-.24,1.87,1.87,0,0,1-.47-.6,3.27,3.27,0,0,1-.27-.77,3.58,3.58,0,0,1-.09-.76,2.2,2.2,0,0,1,.19-.79,10.18,10.18,0,0,1,.49-1l.63-1.15q.33-.6.63-1.21a8.85,8.85,0,0,0,.49-1.19A3.61,3.61,0,0,0,49.75,26.19Z"/><path class="cls-1" d="M62.74,28.65a.46.46,0,0,1,.23-.18.29.29,0,0,1,.23,0,.22.22,0,0,1,.11.2.63.63,0,0,1-.14.36q-.09.14-.46.64t-.89,1.15q-.52.66-1.15,1.4T59.4,33.59a9.42,9.42,0,0,1-1.21,1,1.85,1.85,0,0,1-1,.4,1.37,1.37,0,0,1-.85-.24,1.67,1.67,0,0,1-.5-.61,2.52,2.52,0,0,1-.23-.8,3.55,3.55,0,0,1,0-.79A3.07,3.07,0,0,1,56,31.42q.32-.64.76-1.38l.89-1.54a12.82,12.82,0,0,0,.78-1.61,1,1,0,0,0,.07-.27,1.52,1.52,0,0,1,.05-.26.45.45,0,0,1,.11-.19.32.32,0,0,1,.23-.07.74.74,0,0,1,.38.14,1.38,1.38,0,0,1,.4.4,2.16,2.16,0,0,1,.29.66,2.52,2.52,0,0,1,.05.92,2.66,2.66,0,0,1-.34.93q-.31.57-.71,1.22l-.82,1.31a9,9,0,0,0-.65,1.2,1.94,1.94,0,0,0-.21.87q0,.33.5.33.2,0,.78-.5a17.05,17.05,0,0,0,1.32-1.29q.73-.78,1.51-1.74A20.65,20.65,0,0,0,62.74,28.65Zm-1.82-3.08a.62.62,0,0,1-.35-.14,1.32,1.32,0,0,1-.35-.41,2.43,2.43,0,0,1-.31-1.53,2.33,2.33,0,0,1,.2-.83,1.92,1.92,0,0,1,.36-.54,1.3,1.3,0,0,1,.41-.29,1,1,0,0,1,.38-.09,1.42,1.42,0,0,1,.44.1,3.05,3.05,0,0,1,.55.26,2,2,0,0,1,.46.37.58.58,0,0,1,.17.44.76.76,0,0,1-.13.39,2.44,2.44,0,0,1-.27.32l-.36.39a4,4,0,0,0-.41.59l-.32.56a2.11,2.11,0,0,1-.18.29.31.31,0,0,1-.13.11Z"/><path class="cls-1" d="M66.61,26a1,1,0,0,1,.72.3,2.41,2.41,0,0,1,.51.66,2.13,2.13,0,0,1,.23.66q0,.3-.1.3a2.41,2.41,0,0,0-1.23.45,9.74,9.74,0,0,0-1.44,1.14A18.4,18.4,0,0,0,63.9,31a14.09,14.09,0,0,0-1.12,1.48,5.13,5.13,0,0,0-.59,1.14q-.14.45.18.45.11,0,.46-.31t.81-.77q.46-.47,1-1t.9-1q.41-.49.65-.85t.21-.45.12-.13a1,1,0,0,1,.45.14,1.55,1.55,0,0,1,.49.45,1.31,1.31,0,0,1,.23.79A2.61,2.61,0,0,1,67.39,32q-.25.57-.52,1t-.41.79q-.14.32.07.32t.78-.5a17.48,17.48,0,0,0,1.26-1.29q.7-.78,1.46-1.73t1.35-1.85a.52.52,0,0,1,.23-.19.27.27,0,0,1,.23,0,.22.22,0,0,1,.11.2.63.63,0,0,1-.14.36l-.46.64q-.35.5-.86,1.15T69.37,32.3q-.61.73-1.23,1.34a8.82,8.82,0,0,1-1.17,1A1.79,1.79,0,0,1,66,35a1,1,0,0,1-.54-.18,2,2,0,0,1-.47-.43,2.66,2.66,0,0,1-.32-.52,1.1,1.1,0,0,1-.13-.43,1.52,1.52,0,0,1,0-.35q0-.19.1-.35t.16-.4q-.65.74-1.23,1.33t-1,.92a1.4,1.4,0,0,1-.74.41,1.16,1.16,0,0,1-.54-.15,2.24,2.24,0,0,1-1-1.08,2.14,2.14,0,0,1-.17-.87,3,3,0,0,1,.33-1.23,9.79,9.79,0,0,1,.87-1.48,14.68,14.68,0,0,1,1.23-1.51,15.32,15.32,0,0,1,1.41-1.34,8.43,8.43,0,0,1,1.38-1A2.54,2.54,0,0,1,66.61,26Z"/><path class="cls-1" d="M74.45,35a1,1,0,0,1-.87-.64,3.45,3.45,0,0,1-.35-1.67,2.2,2.2,0,0,1,.12-.66,6.44,6.44,0,0,1,.31-.77q.19-.41.42-.84t.49-.85q.59-1,1.33-2-.14,0-.63.45t-1.13,1.14q-.64.69-1.34,1.51T71.51,32.3q-.59.77-1,1.35a2,2,0,0,0-.39.81q0,.51-.19.55t-.42-.22a2.39,2.39,0,0,1-.42-.74,2.77,2.77,0,0,1-.19-1,2.18,2.18,0,0,1,.26-.9A12.18,12.18,0,0,1,69.84,31q.4-.63.87-1.32t.87-1.33a10.54,10.54,0,0,0,.66-1.24,2.66,2.66,0,0,0,.26-1q0-.23.21-.23a.74.74,0,0,1,.45.24,2.22,2.22,0,0,1,.45.7,2.8,2.8,0,0,1,.21,1.14,1.7,1.7,0,0,1-.1.6,3.7,3.7,0,0,1-.21.46q-.14.22-.31.41.92-.94,1.71-1.66l.68-.61q.33-.31.63-.54a5.8,5.8,0,0,1,.53-.38.79.79,0,0,1,.34-.14.66.66,0,0,1,.42.15,1.19,1.19,0,0,1,.32.41,2.7,2.7,0,0,1,.2.59,3,3,0,0,1,.07.65,2,2,0,0,1-.31.77q-.31.55-.76,1.25l-.95,1.45q-.5.75-.87,1.37a8.28,8.28,0,0,0-.55,1q-.17.41,0,.41a1.94,1.94,0,0,0,1.05-.52,13.15,13.15,0,0,0,1.41-1.32q.75-.8,1.5-1.78T80,28.6a.42.42,0,0,1,.23-.19.26.26,0,0,1,.23,0,.23.23,0,0,1,.1.2.63.63,0,0,1-.14.36l-.45.65q-.36.5-.87,1.17T78,32.21a17.71,17.71,0,0,1-1.26,1.37,10.28,10.28,0,0,1-1.23,1A1.88,1.88,0,0,1,74.45,35Z"/><path class="cls-1" d="M85.27,28.65a.46.46,0,0,1,.23-.18.29.29,0,0,1,.23,0,.22.22,0,0,1,.11.2.63.63,0,0,1-.14.36q-.09.14-.46.64t-.89,1.15q-.52.66-1.15,1.4t-1.26,1.35a9.42,9.42,0,0,1-1.21,1,1.85,1.85,0,0,1-1,.4,1.37,1.37,0,0,1-.85-.24,1.67,1.67,0,0,1-.5-.61,2.52,2.52,0,0,1-.23-.8,3.55,3.55,0,0,1,0-.79,3.07,3.07,0,0,1,.36-1.13q.32-.64.76-1.38l.89-1.54a12.82,12.82,0,0,0,.78-1.61,1,1,0,0,0,.07-.27,1.52,1.52,0,0,1,.05-.26.45.45,0,0,1,.11-.19.32.32,0,0,1,.23-.07.74.74,0,0,1,.38.14,1.38,1.38,0,0,1,.4.4,2.16,2.16,0,0,1,.29.66,2.52,2.52,0,0,1,.05.92,2.66,2.66,0,0,1-.34.93q-.31.57-.71,1.22l-.82,1.31a9,9,0,0,0-.65,1.2,1.94,1.94,0,0,0-.21.87q0,.33.5.33.2,0,.78-.5a17.05,17.05,0,0,0,1.32-1.29q.73-.78,1.51-1.74A20.65,20.65,0,0,0,85.27,28.65Zm-1.82-3.08a.62.62,0,0,1-.35-.14,1.32,1.32,0,0,1-.35-.41,2.43,2.43,0,0,1-.31-1.53,2.33,2.33,0,0,1,.2-.83,1.92,1.92,0,0,1,.36-.54,1.3,1.3,0,0,1,.41-.29,1,1,0,0,1,.38-.09,1.42,1.42,0,0,1,.44.1,3.05,3.05,0,0,1,.55.26,2,2,0,0,1,.46.37.58.58,0,0,1,.17.44.76.76,0,0,1-.13.39,2.44,2.44,0,0,1-.27.32l-.36.39a4,4,0,0,0-.41.59l-.32.56a2.11,2.11,0,0,1-.18.29.31.31,0,0,1-.13.11Z"/><path class="cls-1" d="M96.18,42a10.06,10.06,0,0,1-3.37-.51,7.51,7.51,0,0,1-2.41-1.34A5.06,5.06,0,0,1,89,38.21a4.53,4.53,0,0,1-.34-2.2,6.5,6.5,0,0,1,.73-2.5A12,12,0,0,1,91.09,31a17.1,17.1,0,0,1,2.49-2.3,22.09,22.09,0,0,1,6.6-3.45,20.67,20.67,0,0,1,3.73-.84q.73-1.16,1.19-1.92t.72-1.27a5.6,5.6,0,0,0,.36-.88,3.51,3.51,0,0,0,.14-.74q.05-.65.42-.57a1.45,1.45,0,0,1,.76.58,5.14,5.14,0,0,1,.69,1.23,2.92,2.92,0,0,1,.24,1.35q0,.24-.05.41a1.57,1.57,0,0,1-.14.39,5.94,5.94,0,0,1-.34.59l-.64,1a4,4,0,0,1,1.65.78,4.3,4.3,0,0,1,1,1.19,4.52,4.52,0,0,1,.5,1.31,4.34,4.34,0,0,1,.11,1.09,1.94,1.94,0,0,1-.16.72q-.11.18-.22.16t-.19-.19a.57.57,0,0,1-.05-.34.92.92,0,0,0-.28-.68,3,3,0,0,0-.89-.65,7.26,7.26,0,0,0-1.37-.51,8.17,8.17,0,0,0-1.68-.27l-1.28,2q-.58.92-1,1.73a11.13,11.13,0,0,0-.72,1.55,5.43,5.43,0,0,0-.32,1.42q-.05.73-.43.7a1.24,1.24,0,0,1-.78-.47,4.57,4.57,0,0,1-.73-1.14,2.49,2.49,0,0,1-.27-1.28,4.12,4.12,0,0,1,.27-1.19,8.52,8.52,0,0,1,.5-1q.28-.5.61-1a8.45,8.45,0,0,0,.59-1.05,17.29,17.29,0,0,0-3.82,1.45A17.91,17.91,0,0,0,95,31.1a11.64,11.64,0,0,0-2.38,2.69,6.41,6.41,0,0,0-1,3,5,5,0,0,0,.12,1.68,3.5,3.5,0,0,0,.73,1.43,3.66,3.66,0,0,0,1.38,1,5.32,5.32,0,0,0,2.1.36,11.69,11.69,0,0,0,4.47-.89,18.92,18.92,0,0,0,4.18-2.39,27.17,27.17,0,0,0,3.78-3.46,45.36,45.36,0,0,0,3.32-4.11A45.76,45.76,0,0,0,114.41,26q1.23-2.2,2.12-4.15a33.87,33.87,0,0,0,1.41-3.51,10.56,10.56,0,0,0,.57-2.49,1.19,1.19,0,0,0-.57-1.27,3.29,3.29,0,0,0-1.73-.3,12.5,12.5,0,0,0-2.51.43,27,27,0,0,0-2.92,1q-1.49.58-2.93,1.28t-2.6,1.39a15.2,15.2,0,0,0-1.87,1.28q-.72.6-.74,1a.5.5,0,0,0,0,.32.56.56,0,0,1,.07.3q0,.3-.41.12a3.25,3.25,0,0,1-.82-.59,5.2,5.2,0,0,1-.81-1,1.79,1.79,0,0,1-.34-1.05,1.9,1.9,0,0,1,.58-.92,10.82,10.82,0,0,1,1.54-1.31A22.29,22.29,0,0,1,104.83,15a22.57,22.57,0,0,1,2.93-1.34,25.1,25.1,0,0,1,3.32-1,16.17,16.17,0,0,1,3.55-.39,8.24,8.24,0,0,1,3.38.61,6.63,6.63,0,0,1,2.15,1.46,4.76,4.76,0,0,1,1.09,1.77,4.49,4.49,0,0,1,.27,1.51,15.88,15.88,0,0,1-.77,3.62,24.41,24.41,0,0,1-1.72,4,36.41,36.41,0,0,1-2.54,4,37.27,37.27,0,0,1-3.22,3.88,36.39,36.39,0,0,1-3.78,3.46,28.79,28.79,0,0,1-4.2,2.78,23,23,0,0,1-4.49,1.85A16.46,16.46,0,0,1,96.18,42Z"/><path class="cls-1" d="M126.5,28.74a.52.52,0,0,1,.23-.19.27.27,0,0,1,.23,0,.22.22,0,0,1,.11.2.63.63,0,0,1-.14.36q-.09.14-.49.64t-1,1.15q-.59.66-1.32,1.39a17.67,17.67,0,0,1-1.47,1.33,10.37,10.37,0,0,1-1.46,1,2.7,2.7,0,0,1-1.29.4,1.76,1.76,0,0,1-.87-.29,2.07,2.07,0,0,1-.59-.66,2.49,2.49,0,0,1-.27-1.29,4.41,4.41,0,0,1,.32-1.63,7.9,7.9,0,0,1,.84-1.57,10.65,10.65,0,0,1,1.14-1.4,13.85,13.85,0,0,1,1.23-1.14,6.82,6.82,0,0,1,1.13-.76,2,2,0,0,1,.83-.27,1.14,1.14,0,0,1,.4.08,1,1,0,0,1,.41.3,1.82,1.82,0,0,1,.32.61,3.32,3.32,0,0,1,.14,1,2,2,0,0,1-.29.95,6.1,6.1,0,0,1-.74,1,11.24,11.24,0,0,1-1,1,13.14,13.14,0,0,1-1.08.87,7.9,7.9,0,0,1-1,.6,1.67,1.67,0,0,1-.68.23,2.7,2.7,0,0,0-.22.61.72.72,0,0,0,0,.41q.08.18.44.18a2.6,2.6,0,0,0,1.23-.48,13.34,13.34,0,0,0,1.65-1.23,19.49,19.49,0,0,0,1.72-1.68A14.94,14.94,0,0,0,126.5,28.74Zm-3-.47a.58.58,0,0,0-.31.16,3.22,3.22,0,0,0-.42.43l-.49.61-.51.68q-.59.85-1.28,1.89a8.06,8.06,0,0,0,1.59-1.2,8.71,8.71,0,0,0,1.06-1.23,3.06,3.06,0,0,0,.49-1Q123.72,28.28,123.51,28.28Z"/><path class="cls-1" d="M133.85,35a1,1,0,0,1-.87-.57,3.1,3.1,0,0,1-.34-1.59,2.15,2.15,0,0,1,.13-.67,6.51,6.51,0,0,1,.33-.8q.21-.42.48-.87t.56-.87q.65-1,1.5-2.09A2,2,0,0,0,135,28q-.51.39-1.19,1t-1.35,1.23a12.63,12.63,0,0,0-1.11,1.23q-.29.43-.61,1t-.6,1.07q-.28.51-.46.93a1.88,1.88,0,0,0-.18.54c0,.12-.05.15-.16.09a1.29,1.29,0,0,1-.37-.38,3.09,3.09,0,0,1-.37-.72,2.7,2.7,0,0,1-.16-1,2.15,2.15,0,0,1,.13-.67,7,7,0,0,1,.33-.81q.21-.43.48-.88t.56-.88q.67-1,1.51-2.13-.14,0-.66.49t-1.2,1.23q-.69.74-1.44,1.63t-1.4,1.7q-.64.81-1.05,1.44a2.16,2.16,0,0,0-.41.85c0,.12-.06.16-.19.14a.94.94,0,0,1-.42-.29,2.37,2.37,0,0,1-.42-.65,2.21,2.21,0,0,1-.19-.95,2.24,2.24,0,0,1,.27-.92A13.28,13.28,0,0,1,125,31q.4-.64.87-1.34t.87-1.38a13.26,13.26,0,0,0,.67-1.28,2.65,2.65,0,0,0,.27-1.05q0-.23.2-.23a.73.73,0,0,1,.44.24,2.22,2.22,0,0,1,.45.7,2.85,2.85,0,0,1,.21,1.15,2,2,0,0,1-.13.68,5.88,5.88,0,0,1-.27.64q-.18.32-.38.65,1-1.06,1.91-1.91l.75-.7q.37-.34.69-.61t.57-.44a.57.57,0,0,1,.8,0,1.41,1.41,0,0,1,.38.41,2.25,2.25,0,0,1,.25.59,2.42,2.42,0,0,1,.09.65,1.18,1.18,0,0,1-.14.47q-.14.29-.35.67l.85-.83q.52-.5,1-1t1-.8a1.42,1.42,0,0,1,.63-.33.62.62,0,0,1,.41.15,1.35,1.35,0,0,1,.32.42,2.42,2.42,0,0,1,.21.59,3,3,0,0,1,.07.65,2.09,2.09,0,0,1-.32.79q-.32.57-.78,1.29l-1,1.5q-.51.78-.91,1.43a9.2,9.2,0,0,0-.58,1.07q-.18.42,0,.42a1.91,1.91,0,0,0,1-.54,16.29,16.29,0,0,0,1.43-1.38q.78-.84,1.6-1.83a23.12,23.12,0,0,0,1.41-1.89.43.43,0,0,1,.23-.19.26.26,0,0,1,.23,0,.23.23,0,0,1,.1.2.63.63,0,0,1-.14.36l-.44.65q-.35.5-.87,1.17t-1.14,1.41a17.54,17.54,0,0,1-1.26,1.37,8,8,0,0,1-1.26,1A2.13,2.13,0,0,1,133.85,35Z"/><path class="cls-1" d="M145.85,28.74a.52.52,0,0,1,.23-.19.27.27,0,0,1,.23,0,.22.22,0,0,1,.11.2.63.63,0,0,1-.14.36q-.09.14-.49.64t-1,1.15q-.59.66-1.32,1.39A17.67,17.67,0,0,1,142,33.64a10.37,10.37,0,0,1-1.46,1,2.7,2.7,0,0,1-1.29.4,1.76,1.76,0,0,1-.87-.29,2.07,2.07,0,0,1-.59-.66,2.5,2.5,0,0,1-.27-1.29,4.41,4.41,0,0,1,.32-1.63,7.89,7.89,0,0,1,.84-1.57,10.65,10.65,0,0,1,1.14-1.4,13.87,13.87,0,0,1,1.23-1.14,6.83,6.83,0,0,1,1.13-.76A2,2,0,0,1,143,26a1.14,1.14,0,0,1,.4.08,1,1,0,0,1,.41.3,1.82,1.82,0,0,1,.32.61,3.32,3.32,0,0,1,.14,1A2,2,0,0,1,144,29a6.1,6.1,0,0,1-.74,1,11.23,11.23,0,0,1-1,1,13.12,13.12,0,0,1-1.08.87,7.9,7.9,0,0,1-1,.6,1.67,1.67,0,0,1-.68.23,2.7,2.7,0,0,0-.22.61.72.72,0,0,0,0,.41q.08.18.44.18a2.6,2.6,0,0,0,1.23-.48,13.33,13.33,0,0,0,1.65-1.23,19.48,19.48,0,0,0,1.72-1.68A14.93,14.93,0,0,0,145.85,28.74Zm-3-.47a.58.58,0,0,0-.31.16,3.21,3.21,0,0,0-.42.43l-.49.61-.51.68q-.59.85-1.28,1.89a8.05,8.05,0,0,0,1.59-1.2,8.7,8.7,0,0,0,1.06-1.23,3.07,3.07,0,0,0,.49-1Q143.08,28.28,142.86,28.28Z"/><path class="cls-1" d="M156.05,24.65a.48.48,0,0,1,0,.37.36.36,0,0,1-.16.15.56.56,0,0,1-.29,0,.82.82,0,0,0-.21-.47,2.29,2.29,0,0,0-.61-.52,4,4,0,0,0-1-.42,4.7,4.7,0,0,0-1.33-.17h-.57l-.55,0q-.56,1-1.24,2.17l-1.37,2.32q-.69,1.16-1.3,2.23t-1,1.9A6.27,6.27,0,0,0,146,33.6q-.1.5.23.5a1.94,1.94,0,0,0,.8-.5,17.89,17.89,0,0,0,1.36-1.29q.76-.78,1.56-1.73a19.42,19.42,0,0,0,1.4-1.85.43.43,0,0,1,.23-.19.26.26,0,0,1,.23,0,.23.23,0,0,1,.1.2.63.63,0,0,1-.14.36q-.09.14-.46.64t-.91,1.15q-.54.66-1.19,1.39t-1.29,1.34a9.51,9.51,0,0,1-1.23,1,1.9,1.9,0,0,1-1,.4,1.42,1.42,0,0,1-.81-.21,1.49,1.49,0,0,1-.48-.51,2,2,0,0,1-.23-.68,4.8,4.8,0,0,1-.05-.69,2.74,2.74,0,0,1,.2-.86,13.67,13.67,0,0,1,.54-1.26q.34-.71.8-1.56l1-1.76,1-1.86,1-1.85q-.47,0-1,0h-1a5.19,5.19,0,0,1-1.28-.14,3.19,3.19,0,0,1-.87-.35,1.91,1.91,0,0,1-.55-.49,2.46,2.46,0,0,1-.31-.54q-.16-.47,0-.58t.39.09a4,4,0,0,0,1.06.59,4.39,4.39,0,0,0,1.6.26q.81,0,1.5,0l1.16-.1q.68-1.28,1.11-2.25a4.15,4.15,0,0,0,.42-1.42q0-.2.27-.18a1.2,1.2,0,0,1,.6.26,2.29,2.29,0,0,1,.6.7,2.23,2.23,0,0,1,.27,1.14,2.08,2.08,0,0,1-.16.67,8.8,8.8,0,0,1-.47,1h.52a4.66,4.66,0,0,1,1.47.21,3.85,3.85,0,0,1,1.05.52,2.57,2.57,0,0,1,.68.7A3.1,3.1,0,0,1,156.05,24.65Z"/><path class="cls-1" d="M160.77,28.73a.43.43,0,0,1,.23-.19.26.26,0,0,1,.23,0,.23.23,0,0,1,.1.2.63.63,0,0,1-.14.36q-.09.14-.45.64t-.88,1.15q-.52.66-1.15,1.39t-1.26,1.34a9.42,9.42,0,0,1-1.21,1,1.85,1.85,0,0,1-1,.4,1.6,1.6,0,0,1-.85-.2,1.44,1.44,0,0,1-.5-.5,2.11,2.11,0,0,1-.25-.69,4.09,4.09,0,0,1-.07-.75,2.27,2.27,0,0,1,.24-.91q.24-.53.59-1.14l.74-1.25a13.27,13.27,0,0,0,.68-1.28,9.24,9.24,0,0,1-1,.33,5.11,5.11,0,0,1-1.36.17,1.56,1.56,0,0,1-.44-.07,1,1,0,0,1-.46-.32,1.92,1.92,0,0,1-.36-.69,4.08,4.08,0,0,1-.14-1.21,5.24,5.24,0,0,1,.35-1.94,5.71,5.71,0,0,1,.87-1.53,4.49,4.49,0,0,1,1.11-1,2.06,2.06,0,0,1,1.05-.36,1.29,1.29,0,0,1,.87.31,1.07,1.07,0,0,1,.36.87,2.24,2.24,0,0,1-.11.63,5.57,5.57,0,0,1-.29.75q-.18.39-.41.8t-.46.79q-.56.9-1.24,1.87l1.24-.65.95-.49.6-.32.36-.23a.31.31,0,0,1,.4.06l.39.32a2.63,2.63,0,0,1,.5.53,1.64,1.64,0,0,1,.28.67.82.82,0,0,1-.24.7l-.05.06-.05.06-.63.85q-.4.54-.83,1.17t-.83,1.27a8.72,8.72,0,0,0-.62,1.17,2.2,2.2,0,0,0-.22.87q0,.33.41.33v0q.2,0,.78-.5a17.05,17.05,0,0,0,1.32-1.29q.73-.78,1.51-1.74A22.28,22.28,0,0,0,160.77,28.73Zm-7.37-2.27a1.79,1.79,0,0,0,0,.43,1.19,1.19,0,0,0,.12.31,1,1,0,0,0,.18.25q.38-.72.76-1.38t.63-1.16a4.11,4.11,0,0,0,.32-.8q.07-.3-.16-.3a.92.92,0,0,0-.56.29,4.25,4.25,0,0,0-.62.7,5.09,5.09,0,0,0-.5.87A2,2,0,0,0,153.4,26.46Z"/><path class="cls-1" d="M166.09,26a1,1,0,0,1,.72.3,2.41,2.41,0,0,1,.51.66,2.13,2.13,0,0,1,.23.66q0,.3-.1.3a2.41,2.41,0,0,0-1.23.45,9.74,9.74,0,0,0-1.44,1.14A18.38,18.38,0,0,0,163.38,31a14.11,14.11,0,0,0-1.12,1.48,5.13,5.13,0,0,0-.59,1.14q-.14.45.18.45.11,0,.46-.31t.81-.77q.46-.47,1-1t.9-1q.41-.49.65-.85t.21-.45.12-.13a1,1,0,0,1,.45.14,1.55,1.55,0,0,1,.49.45,1.31,1.31,0,0,1,.23.79,2.61,2.61,0,0,1-.25,1.05q-.25.57-.52,1t-.41.79q-.14.32.07.32t.77-.5A17.46,17.46,0,0,0,168,32.32q.7-.78,1.46-1.73t1.35-1.85a.52.52,0,0,1,.23-.19.27.27,0,0,1,.23,0,.22.22,0,0,1,.11.2.63.63,0,0,1-.14.36l-.46.64q-.35.5-.86,1.15t-1.12,1.39q-.61.73-1.23,1.34a8.83,8.83,0,0,1-1.17,1,1.79,1.79,0,0,1-1,.39,1,1,0,0,1-.54-.18,2,2,0,0,1-.47-.43,2.67,2.67,0,0,1-.32-.52,1.1,1.1,0,0,1-.13-.43,1.52,1.52,0,0,1,0-.35c0-.13.06-.24.1-.35s.1-.26.16-.4q-.65.74-1.23,1.33t-1,.92a1.4,1.4,0,0,1-.74.41,1.16,1.16,0,0,1-.54-.15,2.24,2.24,0,0,1-1-1.08,2.14,2.14,0,0,1-.17-.87,3,3,0,0,1,.33-1.23,9.79,9.79,0,0,1,.87-1.48,14.69,14.69,0,0,1,1.23-1.51,15.34,15.34,0,0,1,1.41-1.34,8.43,8.43,0,0,1,1.38-1A2.54,2.54,0,0,1,166.09,26Z"/><path class="cls-1" d="M177.75,28.62a.52.52,0,0,1,.23-.19.27.27,0,0,1,.23,0,.22.22,0,0,1,.11.2.63.63,0,0,1-.14.36q-.11.18-.37.54a4.86,4.86,0,0,1-.72.77,6,6,0,0,1-1.18.78,6.35,6.35,0,0,1-1.75.58v.13a4.16,4.16,0,0,1-.31,1.64,2.72,2.72,0,0,1-.71,1,2.48,2.48,0,0,1-.88.49,3,3,0,0,1-.82.14A1.79,1.79,0,0,1,171,35a2.37,2.37,0,0,1-.59-.26,1.71,1.71,0,0,1-.51-.49,1.25,1.25,0,0,1-.22-.74,1.15,1.15,0,0,1,.12-.52,1.81,1.81,0,0,1,.32-.44,2.2,2.2,0,0,1,.45-.36,5.46,5.46,0,0,1,.52-.28,6.89,6.89,0,0,1,1.41-.47q.09-.61.14-1.28t0-1.27a7.6,7.6,0,0,0-.13-1.38.16.16,0,0,1,0-.07v-.18q-.27.45-.61,1t-.7,1a.45.45,0,0,1-.26.21.23.23,0,0,1-.31-.23.49.49,0,0,1,.1-.3l.53-.79q.3-.45.59-.94t.53-1a4.9,4.9,0,0,0,.35-.88q0-.16.11-.39t.15-.41a.74.74,0,0,1,.19-.28.17.17,0,0,1,.23,0l.43.33a4.4,4.4,0,0,1,.53.49,3.12,3.12,0,0,1,.45.62,1.47,1.47,0,0,1,.19.72,1.42,1.42,0,0,1-.13.62,7.07,7.07,0,0,0-.28.69,7.85,7.85,0,0,0-.29,1.2,15.44,15.44,0,0,0-.17,2.15,5.85,5.85,0,0,0,2-.83A5.67,5.67,0,0,0,177.75,28.62Zm-7.48,5a.44.44,0,0,0,.26.43.73.73,0,0,0,.61,0,2,2,0,0,0,.73-.6,3.37,3.37,0,0,0,.59-1.34,7.65,7.65,0,0,0-1.1.4,3.76,3.76,0,0,0-.76.48A.83.83,0,0,0,170.27,33.57Z"/><path class="cls-1" d="M26.34,53.65a2.25,2.25,0,0,0,.48-.14q.18-.08.18-.15V48.41l-.66.1-.06-.39a9.07,9.07,0,0,1,1.17-.21,11,11,0,0,1,1.27-.08A3.68,3.68,0,0,1,30,48a1.79,1.79,0,0,1,.83.57,1.44,1.44,0,0,1,.29.91,1.79,1.79,0,0,1-.31,1.05,2,2,0,0,1-.77.67,2,2,0,0,1-.89.22,2,2,0,0,1-.79-.14l-.14-.45a1.44,1.44,0,0,0,.34.11,1.91,1.91,0,0,0,.34,0,1.19,1.19,0,0,0,.57-.14,1.13,1.13,0,0,0,.44-.44,1.4,1.4,0,0,0,.17-.72,1.38,1.38,0,0,0-.21-.77,1.25,1.25,0,0,0-.57-.47,2.09,2.09,0,0,0-.84-.16H28v5q0,.16.81.29v.3H26.34Z"/><path class="cls-1" d="M41.38,53.65a2.31,2.31,0,0,0,.49-.14q.18-.08.18-.15V48.57s-.06-.09-.17-.15a2,2,0,0,0-.49-.15V48h2.37v.3a2.52,2.52,0,0,0-.49.14q-.18.08-.18.15v2h2.6v-2s-.06-.09-.17-.15a2,2,0,0,0-.49-.15V48H47.4v.3a2.52,2.52,0,0,0-.49.14q-.18.08-.18.15v4.79s.06.09.17.14a2.09,2.09,0,0,0,.49.14v.3H45v-.3a2.31,2.31,0,0,0,.49-.14q.18-.08.18-.15V51.08h-2.6v2.28s.06.09.17.15a2.2,2.2,0,0,0,.49.14v.3H41.38Z"/><path class="cls-1" d="M58.86,53.67A2.69,2.69,0,0,1,58,52.55a3.71,3.71,0,0,1-.31-1.5A3.56,3.56,0,0,1,58,49.46a3,3,0,0,1,1-1.18,2.45,2.45,0,0,1,1.42-.44,2.19,2.19,0,0,1,1.35.43,2.68,2.68,0,0,1,.86,1.12A3.8,3.8,0,0,1,63,50.88a3.4,3.4,0,0,1-.38,1.58,3.17,3.17,0,0,1-1,1.18,2.38,2.38,0,0,1-1.38.44A2.18,2.18,0,0,1,58.86,53.67Zm.57-4.94a1.85,1.85,0,0,0-.53.85,4.34,4.34,0,0,0-.18,1.33,3.56,3.56,0,0,0,.22,1.28,2.4,2.4,0,0,0,.6.93,1.2,1.2,0,0,0,.82.35,1.25,1.25,0,0,0,.81-.28,1.83,1.83,0,0,0,.55-.84,4.17,4.17,0,0,0,.2-1.38,3.6,3.6,0,0,0-.21-1.24,2.35,2.35,0,0,0-.6-.94,1.24,1.24,0,0,0-.87-.35A1.23,1.23,0,0,0,59.42,48.73Z"/><path class="cls-1" d="M74.47,53.65a2.4,2.4,0,0,0,.58-.17q.18-.09.18-.17V48.5H74a.24.24,0,0,0-.18.08,1,1,0,0,0-.17.27q-.09.19-.24.58l-.3-.12q0-.28.08-.69t.1-.65h5l.17.14a5.41,5.41,0,0,1-.05.59q0,.36-.11.69h-.31l0-.21q-.06-.28-.09-.41a.53.53,0,0,0-.1-.21.22.22,0,0,0-.18-.07H76.27v4.8q0,.08.18.17a2.34,2.34,0,0,0,.58.17v.3H74.47Z"/><path class="cls-1" d="M89.73,53.67a2.69,2.69,0,0,1-.88-1.12,3.71,3.71,0,0,1-.31-1.5,3.56,3.56,0,0,1,.36-1.59,3,3,0,0,1,1-1.18,2.45,2.45,0,0,1,1.42-.44,2.19,2.19,0,0,1,1.35.43,2.68,2.68,0,0,1,.86,1.12,3.8,3.8,0,0,1,.29,1.49,3.4,3.4,0,0,1-.38,1.58,3.17,3.17,0,0,1-1,1.18,2.38,2.38,0,0,1-1.38.44A2.18,2.18,0,0,1,89.73,53.67Zm.57-4.94a1.85,1.85,0,0,0-.53.85,4.34,4.34,0,0,0-.18,1.33,3.56,3.56,0,0,0,.22,1.28,2.4,2.4,0,0,0,.6.93,1.2,1.2,0,0,0,.82.35,1.25,1.25,0,0,0,.81-.28,1.83,1.83,0,0,0,.55-.84A4.17,4.17,0,0,0,92.8,51a3.6,3.6,0,0,0-.21-1.24,2.35,2.35,0,0,0-.6-.94,1.24,1.24,0,0,0-.87-.35A1.23,1.23,0,0,0,90.3,48.73Z"/><path class="cls-1" d="M117,53.33v.06q0,.11.16.17a2.67,2.67,0,0,0,.53.1v.3h-2v-.3a3.25,3.25,0,0,0,.52-.13.31.31,0,0,0,.2-.19L118,48.19a2.64,2.64,0,0,1,.89-.47l2,5.61a.39.39,0,0,0,.18.21,1.12,1.12,0,0,0,.42.11v.3h-2.23v-.3a1.68,1.68,0,0,0,.46-.07q.14-.05.14-.17a.25.25,0,0,0,0-.08l-.5-1.44h-1.9Zm1.4-4.24-.74,2.28h1.54Z"/><path class="cls-1" d="M131.5,53.65a2.25,2.25,0,0,0,.48-.14q.18-.08.18-.15V48.42l-.38.05-.28,0-.06-.39q.58-.13,1.11-.21a8.11,8.11,0,0,1,1.14-.08A3.93,3.93,0,0,1,135,48a1.6,1.6,0,0,1,.76.51,1.2,1.2,0,0,1,.24.74,1.68,1.68,0,0,1-.36,1.08,2,2,0,0,1-1,.64l1.47,2.14a.76.76,0,0,0,.25.22.72.72,0,0,0,.33.06h.22l.06.3q-.34.11-.71.2a2.63,2.63,0,0,1-.54.09.53.53,0,0,1-.27-.08.54.54,0,0,1-.2-.18l-1.38-2.6h-.21a2.37,2.37,0,0,1-.5-.05v2.26s.06.09.17.15a2.2,2.2,0,0,0,.49.14v.3H131.5Zm1.7-3a2.56,2.56,0,0,0,.42,0,1.4,1.4,0,0,0,1-.32,1.21,1.21,0,0,0,.34-.92,1,1,0,0,0-.35-.81,1.69,1.69,0,0,0-1.12-.3h-.29Z"/><path class="cls-1" d="M148.12,53.65a2.4,2.4,0,0,0,.58-.17q.18-.09.18-.17V48.5H147.6a.24.24,0,0,0-.18.08,1,1,0,0,0-.17.27q-.09.19-.24.58l-.3-.12q0-.28.08-.69t.1-.65h5l.17.14a5.4,5.4,0,0,1-.05.59q0,.36-.11.69h-.31l0-.21q-.06-.28-.09-.41a.53.53,0,0,0-.1-.21.22.22,0,0,0-.18-.07h-1.23v4.8q0,.08.18.17a2.34,2.34,0,0,0,.57.17v.3h-2.55Z"/><path class="cls-1" d="M102.19,88.82H75.65a1.59,1.59,0,0,1-1.58-1.58V69.43a1.59,1.59,0,0,1,1.58-1.58h6.52l.77-1.93A1.49,1.49,0,0,1,84.3,65h8.23a1.48,1.48,0,0,1,1.35.88l.83,2h7.47a1.59,1.59,0,0,1,1.59,1.58v17.8A1.59,1.59,0,0,1,102.19,88.82ZM75.65,68.43a1,1,0,0,0-1,1v17.8a1,1,0,0,0,1,1h26.54a1,1,0,0,0,1-1V69.43a1,1,0,0,0-1-1H94.33l-1-2.31a.89.89,0,0,0-.81-.53H84.3a.9.9,0,0,0-.82.55l-.92,2.29Z"/><path class="cls-1" d="M102.19,89.16H75.65a1.93,1.93,0,0,1-1.93-1.93V69.43a1.93,1.93,0,0,1,1.93-1.93h6.28l.69-1.71a1.84,1.84,0,0,1,1.68-1.13h8.23a1.83,1.83,0,0,1,1.66,1.09l.75,1.75h7.24a1.94,1.94,0,0,1,1.94,1.93v17.8A1.94,1.94,0,0,1,102.19,89.16ZM75.65,68.77a.65.65,0,0,0-.65.65v17.8a.65.65,0,0,0,.65.65h26.54a.66.66,0,0,0,.66-.65V69.43a.66.66,0,0,0-.66-.65H94.1L93,66.26a.54.54,0,0,0-.49-.32H84.3a.56.56,0,0,0-.5.33l-1,2.5Z"/><path class="cls-2" d="M77.44,76.63a3.27,3.27,0,0,0,1.13-.38c3.19-1.65,4.72-3,9.29-3.44,5.12-.44,11.36,3.53,16.62,6.61h0c-4.94-4.34-9.76-8.76-15.89-9.15C85,70,79.44,71.42,76.72,74.1c-1.08,1.06-.88,2.68.73,2.53"/><path class="cls-2" d="M97.47,84.07a1,1,0,0,0-1-1.5c-1.76.67-3.91,3.2-8,3.4s-9.3-3.23-13.38-5.89c-.3.08.32-.11,0,0,4.88,4.75,9.63,8.59,16.86,7,1.34-.29,4.64-1.94,5.51-3"/><path class="cls-1" d="M89.13,85.75a7,7,0,1,1,7.48-7A7.26,7.26,0,0,1,89.13,85.75Zm0-12.63a5.64,5.64,0,1,0,6.1,5.62A5.88,5.88,0,0,0,89.13,73.12Z"/><path class="cls-2" d="M91.56,79.43a1.15,1.15,0,0,1,0-2.3,1.08,1.08,0,0,1,1,.7,3.56,3.56,0,1,0,0,.78A1.09,1.09,0,0,1,91.56,79.43Z"/></g></g></svg>